<?xml version="1.0" encoding="utf-8"?>
<!-- Generator: Adobe Illustrator 15.1.0, SVG Export Plug-In . SVG Version: 6.00 Build 0)  -->
<!DOCTYPE svg PUBLIC "-//W3C//DTD SVG 1.1//EN" "http://www.w3.org/Graphics/SVG/1.1/DTD/svg11.dtd">
<svg version="1.1" id="Layer_1" xmlns="http://www.w3.org/2000/svg" xmlns:xlink="http://www.w3.org/1999/xlink" x="0px" y="0px"
	 width="420px" height="420px" viewBox="0 0 420 420" enable-background="new 0 0 420 420" xml:space="preserve">
<g>
	<defs>
		<rect id="SVGID_1_" width="420" height="420"/>
	</defs>
	<clipPath id="SVGID_2_">
		<use xlink:href="#SVGID_1_"  overflow="visible"/>
	</clipPath>
	<g opacity="0.05" clip-path="url(#SVGID_2_)">
		<g>
			<circle fill="#539ACA" cx="278.25" cy="277.516" r="233.865"/>
			<path fill="#6CA7D1" d="M278.25,43.651c129.158,0,233.864,104.706,233.864,233.872c0,129.16-104.698,233.868-233.864,233.868
				S44.383,406.68,44.383,277.518C44.383,148.352,149.089,43.651,278.25,43.651 M278.25,7.797c-36.396,0-71.724,7.137-105,21.209
				c-32.121,13.588-60.964,33.03-85.721,57.789c-24.76,24.758-44.206,53.601-57.79,85.721
				C15.666,205.792,8.531,241.12,8.531,277.515c0,36.392,7.137,71.722,21.208,105c13.589,32.122,33.03,60.954,57.79,85.722
				c24.757,24.76,53.6,44.2,85.721,57.79c33.277,14.071,68.604,21.209,104.997,21.209c36.396,0,71.725-7.138,105.003-21.209
				c32.12-13.59,60.959-33.03,85.723-57.79c24.752-24.763,44.204-53.602,57.778-85.722c14.081-33.278,21.21-68.606,21.21-105
				c0-36.396-7.139-71.724-21.215-105.001c-13.582-32.123-33.026-60.965-57.786-85.723c-24.753-24.758-53.605-44.202-85.721-57.787
				C349.972,14.935,314.644,7.797,278.25,7.797L278.25,7.797z"/>
		</g>
		<g>
			<path fill="#FFFFFF" d="M278.367,288.635c-61.252,0-111.082-49.832-111.082-111.081c0-61.252,49.83-111.082,111.082-111.082
				c61.247,0,111.079,49.83,111.079,111.082C389.451,238.803,339.617,288.635,278.367,288.635z M278.367,72.99
				c-57.654,0-104.561,46.912-104.561,104.563c0,57.656,46.906,104.558,104.561,104.558c57.65,0,104.558-46.897,104.558-104.558
				C382.928,119.902,336.023,72.99,278.367,72.99z"/>
			<path fill="#FFFFFF" d="M278.367,487.234c-61.252,0-111.082-49.832-111.082-111.08s49.83-111.086,111.082-111.086
				c61.247,0,111.079,49.838,111.079,111.086C389.451,437.402,339.617,487.234,278.367,487.234z M278.367,271.595
				c-57.654,0-104.561,46.903-104.561,104.559c0,57.652,46.906,104.558,104.561,104.558c57.65,0,104.558-46.902,104.558-104.558
				C382.928,318.498,336.023,271.595,278.367,271.595z"/>
			<path fill="#FFFFFF" d="M377.662,387.934c-61.247,0-111.076-49.832-111.076-111.073c0-61.251,49.824-111.078,111.076-111.078
				c61.249,0,111.083,49.827,111.083,111.078C488.748,338.104,438.916,387.934,377.662,387.934z M377.662,172.296
				c-57.65,0-104.552,46.902-104.552,104.56c0,57.649,46.907,104.551,104.552,104.551c57.654,0,104.566-46.901,104.566-104.551
				C482.229,219.203,435.321,172.296,377.662,172.296z"/>
			<path fill="#FFFFFF" d="M179.069,387.934c-61.251,0-111.083-49.832-111.083-111.073c0-61.251,49.832-111.078,111.083-111.078
				c61.249,0,111.08,49.827,111.08,111.078C290.146,338.104,240.318,387.934,179.069,387.934z M179.069,172.296
				c-57.655,0-104.56,46.902-104.56,104.56c0,57.649,46.904,104.551,104.56,104.551c57.649,0,104.559-46.901,104.559-104.551
				C283.628,219.203,236.717,172.296,179.069,172.296z"/>
		</g>
		<g>
			<path fill="#FFFFFF" d="M348.581,317.718c-29.672,0-57.565-11.559-78.55-32.538c-20.984-20.98-32.538-48.875-32.538-78.546
				c0-29.667,11.554-57.558,32.538-78.54c20.984-20.987,48.886-32.544,78.555-32.544c29.67,0,57.561,11.555,78.543,32.537
				c20.984,20.98,32.538,48.877,32.538,78.547c0,29.672-11.559,57.568-32.543,78.55
				C406.145,306.162,378.248,317.718,348.581,317.718z M348.586,102.074c-27.926,0-54.186,10.881-73.939,30.633
				c-19.748,19.749-30.624,46.007-30.624,73.933c0,27.922,10.876,54.181,30.624,73.93c19.749,19.752,46.009,30.626,73.935,30.626
				c27.925,0,54.183-10.874,73.933-30.626c19.745-19.749,30.627-46.006,30.627-73.933s-10.879-54.183-30.627-73.935
				C402.766,112.95,376.514,102.074,348.586,102.074z"/>
			<path fill="#FFFFFF" d="M208.15,458.149c-29.668,0-57.564-11.563-78.544-32.538c-43.315-43.307-43.315-113.778,0-157.091
				c20.981-20.978,48.881-32.542,78.551-32.542c29.667,0,57.562,11.558,78.547,32.542c20.975,20.976,32.536,48.875,32.536,78.544
				s-11.564,57.563-32.541,78.549C265.715,446.599,237.824,458.149,208.15,458.149z M208.157,242.507
				c-27.927,0-54.183,10.877-73.938,30.626c-40.768,40.771-40.768,107.106,0,147.87c19.751,19.743,46.009,30.628,73.932,30.628
				c27.929,0,54.186-10.885,73.934-30.628c19.747-19.751,30.63-46.009,30.63-73.938c0-27.924-10.877-54.182-30.63-73.937
				C262.336,253.385,236.081,242.507,208.157,242.507z"/>
			<path fill="#FFFFFF" d="M348.584,458.154c-29.675,0-57.57-11.566-78.553-32.545c-43.305-43.309-43.305-113.779,0-157.092
				c20.979-20.976,48.878-32.541,78.55-32.541c29.667,0,57.563,11.56,78.543,32.541c20.984,20.979,32.543,48.88,32.543,78.549
				c0.003,29.668-11.554,57.561-32.538,78.547C406.146,446.599,378.254,458.154,348.584,458.154z M348.581,242.507
				c-27.926,0-54.186,10.88-73.935,30.626c-40.768,40.771-40.768,107.106,0,147.87c19.749,19.743,46.012,30.628,73.938,30.628
				c27.924,0,54.182-10.885,73.93-30.628c19.748-19.747,30.627-46.005,30.627-73.935c0-27.918-10.882-54.182-30.628-73.935
				C402.764,253.387,376.508,242.507,348.581,242.507z"/>
			<path fill="#FFFFFF" d="M208.154,317.721c-29.67,0-57.568-11.562-78.553-32.541c-43.312-43.31-43.312-113.78,0-157.086
				c20.983-20.984,48.874-32.543,78.545-32.543c29.672,0,57.568,11.561,78.553,32.545c43.311,43.307,43.311,113.777,0.002,157.089
				C265.717,306.166,237.824,317.721,208.154,317.721z M208.146,102.077c-27.919,0-54.177,10.875-73.93,30.624
				c-40.768,40.769-40.768,107.101,0,147.864c19.753,19.752,46.011,30.631,73.938,30.631s54.185-10.874,73.93-30.626
				c40.771-40.768,40.771-107.1-0.005-147.869C262.331,112.955,236.074,102.077,208.146,102.077z"/>
		</g>
		<g>
			<path fill="#539ACA" d="M196.339,276.432c0-45.065,36.524-81.595,81.599-81.595c45.065,0,81.598,36.524,81.598,81.593
				c0,45.076-36.527,81.604-81.598,81.604C232.869,358.027,196.339,321.501,196.339,276.432z"/>
			<path fill="#FFFFFF" d="M277.938,361.35c-46.824,0-84.915-38.096-84.915-84.922c0-46.822,38.091-84.916,84.915-84.916
				s84.914,38.093,84.914,84.916C362.852,323.258,324.762,361.35,277.938,361.35z M277.938,198.157
				c-43.162,0-78.275,35.114-78.275,78.276s35.113,78.279,78.275,78.279c43.163,0,78.278-35.117,78.278-78.279
				S321.098,198.157,277.938,198.157z"/>
		</g>
		<path fill="#FFFFFF" d="M299.266,317.463c-22.682,0-41.072-18.391-41.072-41.074c0-22.683,18.391-41.079,41.072-41.079
			c3.395,0,6.688,0.419,9.839,1.197c-7.932-5.586-17.599-8.88-28.047-8.88c-26.935,0-48.763,21.828-48.763,48.754
			c0,26.928,21.838,48.755,48.763,48.755c10.448,0,20.115-3.296,28.047-8.884C305.949,317.046,302.655,317.463,299.266,317.463z"/>
	</g>
</g>
</svg>
