<?xml version="1.0" encoding="utf-8"?>
<!-- Generator: Adobe Illustrator 15.1.0, SVG Export Plug-In . SVG Version: 6.00 Build 0)  -->
<!DOCTYPE svg PUBLIC "-//W3C//DTD SVG 1.1//EN" "http://www.w3.org/Graphics/SVG/1.1/DTD/svg11.dtd">
<svg version="1.1" id="Layer_1" xmlns="http://www.w3.org/2000/svg" xmlns:xlink="http://www.w3.org/1999/xlink" x="0px" y="0px"
	 width="24.889px" height="13.811px" viewBox="0 0 24.889 13.811" enable-background="new 0 0 24.889 13.811" xml:space="preserve">
<g>
	<path fill="#B0B0B0" d="M24.883,5.454c-0.013-0.12-0.062-0.237-0.154-0.33c-0.106-0.106-0.246-0.16-0.385-0.16h-1.478h-0.662
		h-9.151C12.309,2.113,9.719,0,6.637,0C2.978,0,0,2.977,0,6.637c0,3.661,2.978,6.637,6.637,6.637c3.274,0,5.994-2.383,6.534-5.504
		h2.515V9.21v1.295v0.846h0.004c0.021,0.281,0.253,0.504,0.54,0.504c0.007,0,0.015-0.002,0.021-0.002v0.002h1.746l0,0
		c0.286,0,0.519-0.223,0.539-0.504h0.004V9.21l0,0V7.771h1.425v4.393l0,0v1.144h0.005c0.021,0.28,0.253,0.503,0.539,0.504
		c0.002,0,0.004-0.001,0.006-0.001h1.749c0.002,0,0.004,0.001,0.006,0.001c0.286-0.001,0.519-0.224,0.54-0.504h0.004v-2.14l0,0
		V7.771h0.055h1.478l0,0c0.139,0,0.278-0.055,0.385-0.16c0.105-0.107,0.158-0.245,0.159-0.384h-0.001V5.454H24.883L24.883,5.454z
		 M6.637,10.49c-2.099,0-3.807-1.708-3.807-3.808c0-2.099,1.708-3.808,3.807-3.808c2.1,0,3.807,1.709,3.807,3.808
		C10.443,8.782,8.736,10.49,6.637,10.49z"/>
</g>
</svg>
