<?xml version="1.0" encoding="utf-8"?>
<!-- Generator: Adobe Illustrator 15.1.0, SVG Export Plug-In . SVG Version: 6.00 Build 0)  -->
<!DOCTYPE svg PUBLIC "-//W3C//DTD SVG 1.1//EN" "http://www.w3.org/Graphics/SVG/1.1/DTD/svg11.dtd">
<svg version="1.1" id="Layer_1" xmlns="http://www.w3.org/2000/svg" xmlns:xlink="http://www.w3.org/1999/xlink" x="0px" y="0px"
	 width="96.037px" height="149.182px" viewBox="0 0 96.037 149.182" enable-background="new 0 0 96.037 149.182"
	 xml:space="preserve">
<g>
	<rect x="0.001" y="147.586" fill="#F16149" width="96.036" height="1.596"/>
	<rect x="0.001" y="94.997" fill="#F16149" width="96.036" height="1.594"/>
	<path fill="#F16149" d="M26.709,63.383v-5.582c0-5.834-4.362-6.242-7.103-6.242h-6.901v35.825h2.485V69.929h3.908l6.545,17.457
		h2.64l-6.597-17.66C26.709,68.761,26.709,64.854,26.709,63.383 M24.071,63.992c0,2.689-1.573,3.806-4.364,3.806H15.19V53.691h4.668
		c2.438,0,4.213,0.66,4.213,4.771V63.992z"/>
	<path fill="#F16149" d="M39.444,51.154c-2.485,0-4.77,0.812-6.141,2.791c-0.812,1.167-1.268,2.792-1.268,5.582v20.194
		c0,2.232,0,8.119,7.154,8.119c3.35,0,5.276-1.572,6.14-2.891c1.015-1.521,1.167-3.451,1.167-4.924V60.288
		c0-2.183,0-4.617-1.27-6.495C43.961,51.916,41.729,51.154,39.444,51.154 M44.112,79.112c0,2.387-0.254,4.67-2.436,5.887
		c-0.658,0.406-1.471,0.607-2.385,0.607c-1.116,0-2.132-0.303-2.943-0.861c-1.521-1.115-1.928-2.588-1.928-5.986v-19.74
		c0-0.709,0-2.941,1.471-4.363c0.812-0.812,2.03-1.269,3.4-1.269c1.27,0,2.536,0.457,3.35,1.269c1.42,1.473,1.471,4.264,1.471,7.003
		V79.112z"/>
	<path fill="#F16149" d="M60.045,51.154c-2.485,0-4.771,0.812-6.14,2.791c-0.812,1.167-1.27,2.792-1.27,5.582v20.194
		c0,2.232,0,8.119,7.154,8.119c3.35,0,5.277-1.572,6.141-2.891c1.014-1.521,1.166-3.451,1.166-4.924V60.288
		c0-2.183,0-4.617-1.268-6.495S62.328,51.154,60.045,51.154 M64.713,79.112c0,2.387-0.254,4.67-2.437,5.887
		c-0.657,0.406-1.471,0.607-2.385,0.607c-1.115,0-2.131-0.303-2.94-0.861c-1.522-1.115-1.931-2.588-1.931-5.986v-19.74
		c0-0.709,0-2.941,1.473-4.363c0.812-0.812,2.029-1.269,3.398-1.269c1.271,0,2.537,0.457,3.351,1.269
		c1.42,1.473,1.471,4.264,1.471,7.003V79.112L64.713,79.112z"/>
	<polygon fill="#F16149" points="86.074,53.793 86.074,51.561 73.39,51.561 73.39,87.385 75.876,87.385 75.876,69.776 
		84.856,69.776 84.856,67.595 75.876,67.595 75.876,53.793 	"/>
	<polygon fill="#F16149" points="25.062,106.385 25.062,104.151 12.376,104.151 12.376,139.977 14.86,139.977 14.86,122.368 
		23.843,122.368 23.843,120.186 14.86,120.186 14.86,106.385 	"/>
	<path fill="#F16149" d="M41.397,137.54c1.017-1.521,1.168-3.449,1.168-4.922v-19.738c0-2.184,0-4.617-1.27-6.494
		s-3.501-2.639-5.785-2.639c-2.484,0-4.77,0.812-6.139,2.791c-0.812,1.168-1.27,2.789-1.27,5.582v20.193
		c0,2.232,0,8.119,7.154,8.119C38.606,140.432,40.535,138.86,41.397,137.54 M30.489,131.35v-19.74c0-0.709,0-2.941,1.472-4.363
		c0.812-0.812,2.029-1.27,3.397-1.27c1.271,0,2.539,0.457,3.351,1.27c1.421,1.473,1.472,4.264,1.472,7.004v17.455
		c0,2.385-0.254,4.668-2.436,5.885c-0.659,0.406-1.473,0.609-2.387,0.609c-1.114,0-2.129-0.305-2.941-0.863
		C30.896,136.221,30.489,134.749,30.489,131.35"/>
	<path fill="#F16149" d="M61.999,137.54c1.016-1.521,1.166-3.449,1.166-4.922v-19.738c0-2.184,0-4.617-1.27-6.494
		c-1.268-1.877-3.5-2.639-5.783-2.639c-2.487,0-4.771,0.812-6.141,2.791c-0.812,1.168-1.268,2.789-1.268,5.582v20.193
		c0,2.232,0,8.119,7.154,8.119C59.207,140.432,61.136,138.86,61.999,137.54 M51.088,131.35v-19.74c0-0.709,0-2.941,1.474-4.363
		c0.812-0.812,2.028-1.27,3.399-1.27c1.269,0,2.537,0.457,3.349,1.27c1.42,1.473,1.473,4.264,1.473,7.004v17.455
		c0,2.385-0.254,4.668-2.436,5.885c-0.66,0.406-1.472,0.609-2.386,0.609c-1.117,0-2.131-0.305-2.944-0.863
		C51.494,136.221,51.088,134.749,51.088,131.35"/>
	<path fill="#F16149" d="M83.104,134.19c0.459-1.318,0.763-3.094,0.763-7.408v-7.967c0-10.299-1.675-14.713-11.265-14.713h-3.045
		v35.873h4.719C80.011,139.977,82.295,136.626,83.104,134.19 M78.59,136.475c-1.774,1.27-3.297,1.27-6.545,1.27v-31.311
		c3.449,0,7.103,0,8.576,4.264c0.608,1.879,0.812,4.568,0.812,8.119v8.17C81.433,133.836,79.961,135.46,78.59,136.475"/>
	<path fill="#F16149" d="M39.205,16.45l4.207,2.704c0.584,0.375,1.062,0.114,1.062-0.578v-3.731c0-0.693-0.478-1.567-1.062-1.942
		l-4.207-2.705c-0.582-0.375-1.06-0.114-1.06,0.578v3.731C38.146,15.201,38.623,16.075,39.205,16.45"/>
	<path fill="#F16149" d="M43.412,22.159l-4.207-2.705c-0.582-0.375-1.06-0.114-1.06,0.579v3.729c0,0.693,0.478,1.567,1.06,1.942
		l4.207,2.706c0.584,0.375,1.062,0.113,1.062-0.579v-3.731C44.474,23.408,43.996,22.534,43.412,22.159"/>
	<path fill="#F16149" d="M57.894,10.776c0-0.692-0.478-0.954-1.062-0.577l-4.206,2.703c-0.583,0.375-1.062,1.249-1.062,1.942v3.731
		c0,0.692,0.479,0.952,1.062,0.578l4.206-2.704c0.584-0.375,1.062-1.249,1.062-1.943V10.776z"/>
	<path fill="#F16149" d="M56.832,19.454l-4.206,2.705c-0.583,0.375-1.062,1.25-1.062,1.941v3.731c0,0.692,0.479,0.954,1.062,0.579
		l4.206-2.705c0.584-0.375,1.062-1.249,1.062-1.942v-3.729C57.894,19.34,57.416,19.079,56.832,19.454"/>
	<path fill="#F16149" d="M96.037,42.404H48.888V12.969c0-0.93,0.659-2.071,1.467-2.536l6.856-3.948c0.806-0.465,0.806-1.225,0-1.688
		l-7.726-4.448c-0.807-0.465-2.127-0.465-2.934,0l-7.725,4.448c-0.807,0.464-0.807,1.224,0,1.688l6.857,3.948
		c0.806,0.464,1.465,1.605,1.465,2.535v29.436H0v1.595h96.037V42.404z"/>
</g>
</svg>
