<?xml version="1.0" encoding="UTF-8" standalone="no"?>
<!-- Generator: Adobe Illustrator 15.1.0, SVG Export Plug-In . SVG Version: 6.00 Build 0)  -->

<svg
   xmlns:dc="http://purl.org/dc/elements/1.1/"
   xmlns:cc="http://creativecommons.org/ns#"
   xmlns:rdf="http://www.w3.org/1999/02/22-rdf-syntax-ns#"
   xmlns:svg="http://www.w3.org/2000/svg"
   xmlns="http://www.w3.org/2000/svg"
   xmlns:sodipodi="http://sodipodi.sourceforge.net/DTD/sodipodi-0.dtd"
   xmlns:inkscape="http://www.inkscape.org/namespaces/inkscape"
   version="1.1"
   id="Layer_1"
   x="0px"
   y="0px"
   width="300"
   height="300.00101"
   viewBox="0 0 300 300.00101"
   enable-background="new 0 0 700 900"
   xml:space="preserve"
   inkscape:version="0.48.4 r9939"
   sodipodi:docname="Alchemy_A.svg"><metadata
     id="metadata73"><rdf:RDF><cc:Work
         rdf:about=""><dc:format>image/svg+xml</dc:format><dc:type
           rdf:resource="http://purl.org/dc/dcmitype/StillImage" /><dc:title></dc:title></cc:Work></rdf:RDF></metadata><defs
     id="defs71" /><sodipodi:namedview
     pagecolor="#ffffff"
     bordercolor="#666666"
     borderopacity="1"
     objecttolerance="10"
     gridtolerance="10"
     guidetolerance="10"
     inkscape:pageopacity="0"
     inkscape:pageshadow="2"
     inkscape:window-width="2498"
     inkscape:window-height="1416"
     id="namedview69"
     showgrid="false"
     fit-margin-top="0"
     fit-margin-left="0"
     fit-margin-right="0"
     fit-margin-bottom="0"
     inkscape:zoom="1.0488889"
     inkscape:cx="250.62972"
     inkscape:cy="173.16444"
     inkscape:window-x="62"
     inkscape:window-y="24"
     inkscape:window-maximized="1"
     inkscape:current-layer="Layer_1" /><g
     id="g21"
     transform="translate(-199,-212.444)"><g
       id="g23"><circle
         cx="349"
         cy="362.444"
         r="130.623"
         id="circle25"
         sodipodi:cx="349"
         sodipodi:cy="362.444"
         sodipodi:rx="130.623"
         sodipodi:ry="130.623"
         style="fill:#52caaf"
         d="m 479.623,362.444 c 0,72.14109 -58.48191,130.623 -130.623,130.623 -72.14109,0 -130.623,-58.48191 -130.623,-130.623 0,-72.14109 58.48191,-130.623 130.623,-130.623 72.14109,0 130.623,58.48191 130.623,130.623 z" /><path
         d="m 349,231.82 c 72.142,0 130.623,58.481 130.623,130.624 0,72.141 -58.481,130.624 -130.623,130.624 -72.142,0 -130.623,-58.483 -130.623,-130.624 0,-72.142 58.481,-130.624 130.623,-130.624 m 0,-19.376 c -20.241,0 -39.888,3.968 -58.395,11.795 -17.863,7.556 -33.902,18.369 -47.672,32.139 -13.77,13.77 -24.582,29.809 -32.138,47.674 -7.826,18.505 -11.795,38.151 -11.795,58.392 0,20.241 3.969,39.887 11.796,58.393 7.556,17.864 18.368,33.904 32.138,47.674 13.77,13.77 29.809,24.582 47.672,32.139 18.506,7.826 38.153,11.795 58.395,11.795 20.24,0 39.887,-3.969 58.393,-11.795 17.863,-7.557 33.904,-18.369 47.674,-32.139 13.77,-13.77 24.582,-29.81 32.138,-47.674 7.825,-18.506 11.794,-38.151 11.794,-58.393 0,-20.242 -3.969,-39.888 -11.796,-58.393 -7.556,-17.865 -18.368,-33.904 -32.138,-47.674 -13.77,-13.77 -29.811,-24.583 -47.674,-32.139 C 388.887,216.412 369.24,212.444 349,212.444 l 0,0 z"
         id="path27"
         inkscape:connector-curvature="0"
         style="fill:#6ad1ba" /></g><path
       d="M 433,445 H 266 V 278 H 433 V 445 z M 269,442 H 431 V 280 H 269 v 162 z"
       id="path29"
       inkscape:connector-curvature="0"
       style="fill:#ffffff" /><path
       d="M 349.27,480.458 230.406,361.595 349.27,242.731 468.133,361.594 349.27,480.458 z M 235.025,361.595 349.27,475.838 463.514,361.595 349.27,247.351 235.025,361.595 z"
       id="path31"
       inkscape:connector-curvature="0"
       style="fill:#ffffff" /><g
       id="g33"><path
         d="m 305.62,361.009 c 0,-24.356 19.739,-44.098 44.098,-44.098 24.354,0 44.098,19.741 44.098,44.098 0,24.357 -19.743,44.098 -44.098,44.098 -24.359,-0.001 -44.098,-19.741 -44.098,-44.098 z"
         id="path35"
         inkscape:connector-curvature="0"
         style="fill:#52caaf" /><path
         d="m 349.718,406.901 c -25.306,0 -45.892,-20.588 -45.892,-45.893 0,-25.305 20.586,-45.892 45.892,-45.892 25.305,0 45.892,20.587 45.892,45.892 0,25.305 -20.588,45.893 -45.892,45.893 z m 0,-88.195 c -23.327,0 -42.304,18.977 -42.304,42.303 0,23.326 18.977,42.304 42.304,42.304 23.326,0 42.304,-18.978 42.304,-42.304 0,-23.326 -18.978,-42.303 -42.304,-42.303 z"
         id="path37"
         inkscape:connector-curvature="0"
         style="fill:#ffffff" /></g><g
       id="g39"><rect
         x="363.53299"
         y="356.27701"
         transform="matrix(0.7072,0.707,-0.707,0.7072,369.3344,-149.6233)"
         width="3.589"
         height="29.718"
         id="rect41"
         style="fill:#ffffff" /><rect
         x="326.883"
         y="351.53799"
         transform="matrix(0.9565,0.2916,-0.2916,0.9565,118.3316,-87.2623)"
         width="50.037998"
         height="3.589"
         id="rect43"
         style="fill:#ffffff" /><rect
         x="319.09698"
         y="362.04599"
         transform="matrix(0.6021,0.7984,-0.7984,0.6021,426.3596,-127.8009)"
         width="44.596001"
         height="3.5880001"
         id="rect45"
         style="fill:#ffffff" /></g><g
       id="g47"><g
         id="g49"><circle
           cx="354.82001"
           cy="381.64401"
           r="5.2540002"
           id="circle51"
           sodipodi:cx="354.82001"
           sodipodi:cy="381.64401"
           sodipodi:rx="5.2540002"
           sodipodi:ry="5.2540002"
           style="fill:#52caaf"
           d="m 360.07401,381.64401 c 0,2.90171 -2.3523,5.254 -5.254,5.254 -2.90171,0 -5.254,-2.35229 -5.254,-5.254 0,-2.9017 2.35229,-5.254 5.254,-5.254 2.9017,0 5.254,2.3523 5.254,5.254 z" /><path
           d="m 354.82,388.69 c -3.886,0 -7.047,-3.161 -7.047,-7.047 0,-3.887 3.161,-7.049 7.047,-7.049 3.887,0 7.048,3.162 7.048,7.049 0,3.886 -3.161,7.047 -7.048,7.047 z m 0,-10.506 c -1.907,0 -3.459,1.552 -3.459,3.46 0,1.906 1.552,3.459 3.459,3.459 1.908,0 3.459,-1.553 3.459,-3.459 0,-1.909 -1.55,-3.46 -3.459,-3.46 z"
           id="path53"
           inkscape:connector-curvature="0"
           style="fill:#ffffff" /></g><g
         id="g55"><circle
           cx="375.83401"
           cy="360.63"
           r="5.2529998"
           id="circle57"
           sodipodi:cx="375.83401"
           sodipodi:cy="360.63"
           sodipodi:rx="5.2529998"
           sodipodi:ry="5.2529998"
           style="fill:#52caaf"
           d="m 381.08701,360.63 c 0,2.90116 -2.35184,5.253 -5.253,5.253 -2.90115,0 -5.25299,-2.35184 -5.25299,-5.253 0,-2.90115 2.35184,-5.25299 5.25299,-5.25299 2.90116,0 5.253,2.35184 5.253,5.25299 z" /><path
           d="m 375.834,367.677 c -3.886,0 -7.047,-3.162 -7.047,-7.047 0,-3.887 3.161,-7.049 7.047,-7.049 3.887,0 7.048,3.162 7.048,7.049 0,3.885 -3.161,7.047 -7.048,7.047 z m 0,-10.507 c -1.907,0 -3.459,1.552 -3.459,3.46 0,1.906 1.552,3.459 3.459,3.459 1.908,0 3.459,-1.553 3.459,-3.459 0,-1.908 -1.551,-3.46 -3.459,-3.46 z"
           id="path59"
           inkscape:connector-curvature="0"
           style="fill:#ffffff" /></g><g
         id="g61"><circle
           cx="327.97"
           cy="346.03601"
           r="5.2529998"
           id="circle63"
           sodipodi:cx="327.97"
           sodipodi:cy="346.03601"
           sodipodi:rx="5.2529998"
           sodipodi:ry="5.2529998"
           style="fill:#52caaf"
           d="m 333.223,346.03601 c 0,2.90115 -2.35185,5.253 -5.253,5.253 -2.90115,0 -5.253,-2.35185 -5.253,-5.253 0,-2.90115 2.35185,-5.253 5.253,-5.253 2.90115,0 5.253,2.35185 5.253,5.253 z" /><path
           d="m 327.971,353.084 c -3.887,0 -7.049,-3.161 -7.049,-7.048 0,-3.886 3.162,-7.047 7.049,-7.047 3.885,0 7.047,3.161 7.047,7.047 0,3.887 -3.163,7.048 -7.047,7.048 z m 0,-10.507 c -1.908,0 -3.46,1.552 -3.46,3.459 0,1.908 1.552,3.459 3.46,3.459 1.907,0 3.459,-1.551 3.459,-3.459 0,-1.907 -1.552,-3.459 -3.459,-3.459 z"
           id="path65"
           inkscape:connector-curvature="0"
           style="fill:#ffffff" /></g></g><path
       d="M 349.27,463.302 247.562,361.595 349.27,259.887 450.977,361.595 349.27,463.302 z m -97.088,-101.707 97.088,97.088 97.088,-97.088 -97.088,-97.088 -97.088,97.088 z"
       id="path67"
       inkscape:connector-curvature="0"
       style="fill:#ffffff" /></g></svg>