<?xml version="1.0" encoding="utf-8"?>
<!-- Generator: Adobe Illustrator 15.1.0, SVG Export Plug-In . SVG Version: 6.00 Build 0)  -->
<!DOCTYPE svg PUBLIC "-//W3C//DTD SVG 1.1//EN" "http://www.w3.org/Graphics/SVG/1.1/DTD/svg11.dtd">
<svg version="1.1" id="Layer_1" xmlns="http://www.w3.org/2000/svg" xmlns:xlink="http://www.w3.org/1999/xlink" x="0px" y="0px"
	 width="24.841px" height="27.95px" viewBox="0 0 24.841 27.95" enable-background="new 0 0 24.841 27.95" xml:space="preserve">
<g>
	<path fill="#B0B0B0" d="M23.961,17.97l-5.992-2.858l-2.534-1.209c1.106-0.697,2.005-1.773,2.594-3.069
		c0.466-1.029,0.745-2.194,0.745-3.44c0-0.699-0.111-1.363-0.267-2.003C17.754,2.287,15.33,0,12.42,0
		C9.564,0,7.178,2.205,6.377,5.221C6.193,5.913,6.065,6.632,6.065,7.394c0,1.324,0.31,2.558,0.835,3.631
		c0.607,1.245,1.508,2.272,2.604,2.932l-2.428,1.13l-6.186,2.881C0.354,18.219,0,18.826,0,19.502v5.764V26.3
		c0,0.911,0.635,1.649,1.419,1.649h22.003c0.783,0,1.419-0.738,1.419-1.649v-1.034v-5.764C24.84,18.828,24.492,18.227,23.961,17.97z
		"/>
</g>
</svg>
